<svg viewBox="0 0 330 200" xmlns="http://www.w3.org/2000/svg"><g><g><g><g><g><line x1="51.52000045776367" y1="177.95999908447266" x2="46.52000045776367" y2="177.95999908447266" style="visibility: inherit;" fill="rgb(0, 0, 0)" stroke="rgb(204, 204, 204)" stroke-width="1px"></line><line x1="51.52000045776367" y1="163.1299991607666" x2="46.52000045776367" y2="163.1299991607666" style="visibility: inherit;" fill="rgb(0, 0, 0)" stroke="rgb(204, 204, 204)" stroke-width="1px"></line><line x1="51.52000045776367" y1="148.29999923706055" x2="46.52000045776367" y2="148.29999923706055" style="visibility: inherit;" fill="rgb(0, 0, 0)" stroke="rgb(204, 204, 204)" stroke-width="1px"></line><line x1="51.52000045776367" y1="133.4699993133545" x2="46.52000045776367" y2="133.4699993133545" style="visibility: inherit;" fill="rgb(0, 0, 0)" stroke="rgb(204, 204, 204)" stroke-width="1px"></line><line x1="51.52000045776367" y1="118.63999938964847" x2="46.52000045776367" y2="118.63999938964847" style="visibility: inherit;" fill="rgb(0, 0, 0)" stroke="rgb(204, 204, 204)" stroke-width="1px"></line><line x1="51.52000045776367" y1="103.80999946594238" x2="46.52000045776367" y2="103.80999946594238" style="visibility: inherit;" fill="rgb(0, 0, 0)" stroke="rgb(204, 204, 204)" stroke-width="1px"></line><line x1="51.52000045776367" y1="88.97999954223633" x2="46.52000045776367" y2="88.97999954223633" style="visibility: inherit;" fill="rgb(0, 0, 0)" stroke="rgb(204, 204, 204)" stroke-width="1px"></line><line x1="51.52000045776367" y1="74.14999961853027" x2="46.52000045776367" y2="74.14999961853027" style="visibility: inherit;" fill="rgb(0, 0, 0)" stroke="rgb(204, 204, 204)" stroke-width="1px"></line><line x1="51.52000045776367" y1="59.31999969482426" x2="46.52000045776367" y2="59.31999969482426" style="visibility: inherit;" fill="rgb(0, 0, 0)" stroke="rgb(204, 204, 204)" stroke-width="1px"></line><line x1="51.52000045776367" y1="44.48999977111819" x2="46.52000045776367" y2="44.48999977111819" style="visibility: inherit;" fill="rgb(0, 0, 0)" stroke="rgb(204, 204, 204)" stroke-width="1px"></line><line x1="51.52000045776367" y1="29.65999984741211" x2="46.52000045776367" y2="29.65999984741211" style="visibility: inherit;" fill="rgb(0, 0, 0)" stroke="rgb(204, 204, 204)" stroke-width="1px"></line><line x1="51.52000045776367" y1="14.829999923706055" x2="46.52000045776367" y2="14.829999923706055" style="visibility: inherit;" fill="rgb(0, 0, 0)" stroke="rgb(204, 204, 204)" stroke-width="1px"></line><line x1="51.52000045776367" y1="0" x2="46.52000045776367" y2="0" style="visibility: inherit;" fill="rgb(0, 0, 0)" stroke="rgb(204, 204, 204)" stroke-width="1px"></line></g><g transform="translate(41.52000045776367, 0)"><text style="text-anchor: end; visibility: hidden; font-family: &quot;Helvetica Neue&quot;, sans-serif; font-size: 12px; font-weight: 200;" x="0" y="177.95999908447266" dx="0em" dy="0.3em" fill="rgb(50, 49, 63)" stroke="none" stroke-width="1px">0.75</text><text style="text-anchor: end; visibility: inherit; font-family: &quot;Helvetica Neue&quot;, sans-serif; font-size: 12px; font-weight: 200;" x="0" y="163.1299991607666" dx="0em" dy="0.3em" fill="rgb(50, 49, 63)" stroke="none" stroke-width="1px">0.8</text><text style="text-anchor: end; visibility: hidden; font-family: &quot;Helvetica Neue&quot;, sans-serif; font-size: 12px; font-weight: 200;" x="0" y="148.29999923706055" dx="0em" dy="0.3em" fill="rgb(50, 49, 63)" stroke="none" stroke-width="1px">0.85</text><text style="text-anchor: end; visibility: inherit; font-family: &quot;Helvetica Neue&quot;, sans-serif; font-size: 12px; font-weight: 200;" x="0" y="133.4699993133545" dx="0em" dy="0.3em" fill="rgb(50, 49, 63)" stroke="none" stroke-width="1px">0.9</text><text style="text-anchor: end; visibility: hidden; font-family: &quot;Helvetica Neue&quot;, sans-serif; font-size: 12px; font-weight: 200;" x="0" y="118.63999938964847" dx="0em" dy="0.3em" fill="rgb(50, 49, 63)" stroke="none" stroke-width="1px">0.95</text><text style="text-anchor: end; visibility: inherit; font-family: &quot;Helvetica Neue&quot;, sans-serif; font-size: 12px; font-weight: 200;" x="0" y="103.80999946594238" dx="0em" dy="0.3em" fill="rgb(50, 49, 63)" stroke="none" stroke-width="1px">1</text><text style="text-anchor: end; visibility: hidden; font-family: &quot;Helvetica Neue&quot;, sans-serif; font-size: 12px; font-weight: 200;" x="0" y="88.97999954223633" dx="0em" dy="0.3em" fill="rgb(50, 49, 63)" stroke="none" stroke-width="1px">1.05</text><text style="text-anchor: end; visibility: inherit; font-family: &quot;Helvetica Neue&quot;, sans-serif; font-size: 12px; font-weight: 200;" x="0" y="74.14999961853027" dx="0em" dy="0.3em" fill="rgb(50, 49, 63)" stroke="none" stroke-width="1px">1.1</text><text style="text-anchor: end; visibility: hidden; font-family: &quot;Helvetica Neue&quot;, sans-serif; font-size: 12px; font-weight: 200;" x="0" y="59.31999969482426" dx="0em" dy="0.3em" fill="rgb(50, 49, 63)" stroke="none" stroke-width="1px">1.15</text><text style="text-anchor: end; visibility: inherit; font-family: &quot;Helvetica Neue&quot;, sans-serif; font-size: 12px; font-weight: 200;" x="0" y="44.48999977111819" dx="0em" dy="0.3em" fill="rgb(50, 49, 63)" stroke="none" stroke-width="1px">1.2</text><text style="text-anchor: end; visibility: hidden; font-family: &quot;Helvetica Neue&quot;, sans-serif; font-size: 12px; font-weight: 200;" x="0" y="29.65999984741211" dx="0em" dy="0.3em" fill="rgb(50, 49, 63)" stroke="none" stroke-width="1px">1.25</text><text style="text-anchor: end; visibility: inherit; font-family: &quot;Helvetica Neue&quot;, sans-serif; font-size: 12px; font-weight: 200;" x="0" y="14.829999923706055" dx="0em" dy="0.3em" fill="rgb(50, 49, 63)" stroke="none" stroke-width="1px">1.3</text><text style="text-anchor: end; visibility: hidden; font-family: &quot;Helvetica Neue&quot;, sans-serif; font-size: 12px; font-weight: 200;" x="0" y="0" dx="0em" dy="0.3em" fill="rgb(50, 49, 63)" stroke="none" stroke-width="1px">1.35</text></g><line x1="51.52000045776367" y1="0" x2="51.52000045776367" y2="177.95999908447266" fill="rgb(0, 0, 0)" stroke="rgb(204, 204, 204)" stroke-width="1px"></line></g></g><g transform="translate(51, 0)" clip-path="url(#clip_0)"><clipPath id="clip_0"><rect width="278" height="177"></rect></clipPath><g><g><g><line x1="0" y1="0" x2="0" y2="177.95999908447266" fill="rgb(0, 0, 0)" stroke="rgb(60, 60, 60)" stroke-width="1px" opacity="0.25"></line><line x1="27.847999954223635" y1="0" x2="27.847999954223635" y2="177.95999908447266" fill="rgb(0, 0, 0)" stroke="rgb(60, 60, 60)" stroke-width="1px" opacity="0.25"></line><line x1="55.69599990844727" y1="0" x2="55.69599990844727" y2="177.95999908447266" fill="rgb(0, 0, 0)" stroke="rgb(60, 60, 60)" stroke-width="1px" opacity="0.25"></line><line x1="83.5439998626709" y1="0" x2="83.5439998626709" y2="177.95999908447266" fill="rgb(0, 0, 0)" stroke="rgb(60, 60, 60)" stroke-width="1px" opacity="0.25"></line><line x1="111.39199981689454" y1="0" x2="111.39199981689454" y2="177.95999908447266" fill="rgb(0, 0, 0)" stroke="rgb(60, 60, 60)" stroke-width="1px" opacity="0.25"></line><line x1="139.23999977111816" y1="0" x2="139.23999977111816" y2="177.95999908447266" fill="rgb(0, 0, 0)" stroke="rgb(60, 60, 60)" stroke-width="1px" opacity="0.25"></line><line x1="167.0879997253418" y1="0" x2="167.0879997253418" y2="177.95999908447266" fill="rgb(0, 0, 0)" stroke="rgb(60, 60, 60)" stroke-width="1px" opacity="0.25"></line><line x1="194.9359996795654" y1="0" x2="194.9359996795654" y2="177.95999908447266" fill="rgb(0, 0, 0)" stroke="rgb(60, 60, 60)" stroke-width="1px" opacity="0.25"></line><line x1="222.78399963378908" y1="0" x2="222.78399963378908" y2="177.95999908447266" fill="rgb(0, 0, 0)" stroke="rgb(60, 60, 60)" stroke-width="1px" opacity="0.25"></line><line x1="250.6319995880127" y1="0" x2="250.6319995880127" y2="177.95999908447266" fill="rgb(0, 0, 0)" stroke="rgb(60, 60, 60)" stroke-width="1px" opacity="0.25"></line><line x1="278.4799995422363" y1="0" x2="278.4799995422363" y2="177.95999908447266" fill="rgb(0, 0, 0)" stroke="rgb(60, 60, 60)" stroke-width="1px" opacity="0.25"></line></g><g><line x1="0" y1="177.95999908447266" x2="278.4799995422363" y2="177.95999908447266" fill="rgb(0, 0, 0)" stroke="rgb(60, 60, 60)" stroke-width="1px" opacity="0.25"></line><line x1="0" y1="163.1299991607666" x2="278.4799995422363" y2="163.1299991607666" fill="rgb(0, 0, 0)" stroke="rgb(60, 60, 60)" stroke-width="1px" opacity="0.25"></line><line x1="0" y1="148.29999923706055" x2="278.4799995422363" y2="148.29999923706055" fill="rgb(0, 0, 0)" stroke="rgb(60, 60, 60)" stroke-width="1px" opacity="0.25"></line><line x1="0" y1="133.4699993133545" x2="278.4799995422363" y2="133.4699993133545" fill="rgb(0, 0, 0)" stroke="rgb(60, 60, 60)" stroke-width="1px" opacity="0.25"></line><line x1="0" y1="118.63999938964847" x2="278.4799995422363" y2="118.63999938964847" fill="rgb(0, 0, 0)" stroke="rgb(60, 60, 60)" stroke-width="1px" opacity="0.25"></line><line x1="0" y1="103.80999946594238" x2="278.4799995422363" y2="103.80999946594238" fill="rgb(0, 0, 0)" stroke="rgb(60, 60, 60)" stroke-width="1px" opacity="0.25"></line><line x1="0" y1="88.97999954223633" x2="278.4799995422363" y2="88.97999954223633" fill="rgb(0, 0, 0)" stroke="rgb(60, 60, 60)" stroke-width="1px" opacity="0.25"></line><line x1="0" y1="74.14999961853027" x2="278.4799995422363" y2="74.14999961853027" fill="rgb(0, 0, 0)" stroke="rgb(60, 60, 60)" stroke-width="1px" opacity="0.25"></line><line x1="0" y1="59.31999969482426" x2="278.4799995422363" y2="59.31999969482426" fill="rgb(0, 0, 0)" stroke="rgb(60, 60, 60)" stroke-width="1px" opacity="0.25"></line><line x1="0" y1="44.48999977111819" x2="278.4799995422363" y2="44.48999977111819" fill="rgb(0, 0, 0)" stroke="rgb(60, 60, 60)" stroke-width="1px" opacity="0.25"></line><line x1="0" y1="29.65999984741211" x2="278.4799995422363" y2="29.65999984741211" fill="rgb(0, 0, 0)" stroke="rgb(60, 60, 60)" stroke-width="1px" opacity="0.25"></line><line x1="0" y1="14.829999923706055" x2="278.4799995422363" y2="14.829999923706055" fill="rgb(0, 0, 0)" stroke="rgb(60, 60, 60)" stroke-width="1px" opacity="0.25"></line><line x1="0" y1="0" x2="278.4799995422363" y2="0" fill="rgb(0, 0, 0)" stroke="rgb(60, 60, 60)" stroke-width="1px" opacity="0.25"></line></g></g></g><g><g><line x1="0" y1="400.4099979400635" x2="278.4799995422363" y2="400.4099979400635" fill="rgb(0, 0, 0)" stroke="rgb(153, 153, 153)" stroke-width="1.5px"></line></g></g><g><g><line x1="27.847999954223635" y1="0" x2="27.847999954223635" y2="177.95999908447266" fill="rgb(0, 0, 0)" stroke="rgb(153, 153, 153)" stroke-width="1.5px"></line></g></g><g><g><g><g><g><path style="fill: none;" stroke="rgb(204, 51, 17)" stroke-width="2px" d="M30.632799949645996,-3.8274891084220144L32.02519994735718,36.750446473837684L33.41759994506836,47.17284012367966L34.80999994277954,55.65718449092766L36.20239994049072,63.51209508646572L37.59479993820191,77.69779695593026L38.98719993591309,82.5372099301867L40.37959993362426,85.83206696222443L41.77199993133545,89.40299515983408L43.16439992904663,91.61746918275095L44.55679992675781,87.7763391604358L45.949199924469,97.01733349479947L47.34159992218018,105.22649063335302L48.73399991989135,106.84913355932758L50.126399917602534,97.78416641474361L51.51879991531372,106.67731390908467L52.9111999130249,113.48548413305845L54.30359991073609,111.97191901776388L55.69599990844727,113.14382485117814L57.08839990615844,114.62081265848292L58.480799903869624,118.72776017859132L59.87319990158081,120.31101487730575L61.26559989929199,100.72452940144014L62.65799989700317,113.84834022126053L64.05039989471436,119.2509093801541L65.44279989242553,94.13028958055203L66.83519989013672,99.5440493803144L68.2275998878479,113.74145457403665L69.61999988555908,116.24852938213417L71.01239988327026,123.28454317564501L72.40479988098144,129.59146815387976L73.79719987869264,133.0478734896442L75.18959987640382,133.2138591564958L76.581999874115,135.27891248964488L77.97439987182618,135.11824812279565L79.36679986953735,136.18938515217815L80.75919986724853,136.66897394441912L82.1515998649597,137.25976199584602L83.5439998626709,137.3439481440564L84.93639986038208,137.62343130597537L86.32879985809326,138.58204317085574L87.72119985580444,136.37045078215942L89.11359985351562,138.33102277639136L90.5059998512268,138.94484622284517L91.898399848938,139.76885218002417L93.29079984664918,140.18545163037652L94.68319984436036,141.115494655377L96.07559984207153,141.19725881654313L97.4679998397827,141.62593284464174L98.86039983749389,142.33670648781663L100.25279983520507,142.63438107067395L101.64519983291626,141.30048496509426L103.03759983062744,141.95896490259793L104.42999982833862,138.04114451679334L105.8223998260498,142.98518025986732L107.21479982376098,142.89392261663716L108.60719982147218,143.16095994732132L109.99959981918336,143.57752404019857L111.39199981689454,145.06234352823776L112.78439981460572,144.62461798651384L114.17679981231689,145.82813340266648L115.56919981002807,146.33970303113438L116.96159980773925,146.01552802069045L118.35399980545044,146.27685511914615L119.74639980316162,146.20946377160772L121.1387998008728,146.1384306041341L122.53119979858398,146.87266393203709L123.92359979629516,146.71274207216493L125.31599979400634,146.64301713126997L126.70839979171754,146.48106221657963" fill="none"></path></g><g><path style="fill: none;" stroke="rgb(255, 112, 67)" stroke-width="2px" d="M34.80999994277954,-11.860318518657522L36.20239994049072,4.39810925605255L37.59479993820191,17.52443045660496L38.98719993591309,29.086855176059572L40.37959993362426,35.230958981464056L41.77199993133545,38.204239777477596L43.16439992904663,50.74337938906321L44.55679992675781,60.940439850100134L45.949199924469,69.65789605067495L47.34159992218018,76.79013521266735L48.73399991989135,79.48967843646552L50.126399917602534,83.25783063017661L51.51879991531372,83.90363491285736L52.9111999130249,87.70081559362463L54.30359991073609,90.24743773762022L55.69599990844727,90.59521386269263L57.08839990615844,94.12608204101527L58.480799903869624,96.60110529793566L59.87319990158081,97.02306140576549L61.26559989929199,97.6661431628636L62.65799989700317,98.46016598115877L64.05039989471436,100.61336549972931L65.44279989242553,101.71637729291344L66.83519989013672,103.22419681850444L68.2275998878479,103.45398504917195L69.61999988555908,106.26113874843351L71.01239988327026,105.29966292807013L72.40479988098144,108.53662209463347L73.79719987869264,97.80424946059976L75.18959987640382,103.40200956077662L76.581999874115,106.54316764855957L77.97439987182618,104.87008728435649L79.36679986953735,109.04902262376618L80.75919986724853,109.72507522639398L82.1515998649597,108.58868597671655L83.5439998626709,106.85979383806989L84.93639986038208,105.96770706258805L86.32879985809326,108.20998973967016L87.72119985580444,112.53776237050853L89.11359985351562,102.43434618227093L90.5059998512268,111.03305430272621L91.898399848938,113.92374003690884L93.29079984664918,115.3802558661314L94.68319984436036,117.30265946599413L96.07559984207153,117.29753263210478L97.4679998397827,118.44569592099016L98.86039983749389,118.41942531699169L100.25279983520507,120.21010464337361L101.64519983291626,115.6867521390259L103.03759983062744,113.88608432592855L104.42999982833862,118.54975297020611L105.8223998260498,118.44527163128897L107.21479982376098,120.35231240822122L108.60719982147218,120.44169610527115L109.99959981918336,123.42485931557485L111.39199981689454,123.75159774296344L112.78439981460572,123.25273912679359L114.17679981231689,122.85180303791003L115.56919981002807,123.96158578757559L116.96159980773925,126.46600878504069L118.35399980545044,127.08670926040122L119.74639980316162,126.4700218584644L121.1387998008728,126.57255853625111L122.53119979858398,124.76112437198617L123.92359979629516,125.6371058175605L125.31599979400634,127.44721407650923L126.70839979171754,129.41712044416727L128.10079978942872,130.32259002397404L129.4931997871399,126.73177324662129L130.88559978485105,127.88580587637307L132.27799978256226,128.73362509303115L133.67039978027344,131.0610308914138L135.06279977798462,131.0099216611584L136.4551997756958,132.31365784047875L137.84759977340698,133.0036412882955L139.23999977111816,131.27710042174294L140.63239976882934,130.97795850366902L142.02479976654053,134.48018712716157L143.4171997642517,133.31093310437973L144.8095997619629,134.05573831733727L146.20199975967407,134.3716573573456L147.59439975738528,131.01179560733863L148.98679975509646,134.63010282158075L150.37919975280764,135.9891911281684L151.77159975051882,138.5462967635308L153.16399974823,138.86462011184585L154.55639974594118,139.15799876147867L155.94879974365236,139.40355642604027L157.3411997413635,139.41635583202606L158.7335997390747,139.32396674959273L160.12599973678587,139.69126020091971L161.51839973449705,139.45176634333757L162.91079973220823,139.9744382189865L164.3031997299194,139.59316088625792L165.6955997276306,139.8222242886859L167.0879997253418,139.58372044040652L168.48039972305298,139.9138885428797L169.87279972076416,139.78294213385107L171.26519971847534,140.22860542873468L172.65759971618652,140.13393578915748L174.0499997138977,140.38778478162976L175.44239971160889,140.31908520751267L176.83479970932007,140.33591536565973L178.22719970703125,140.42043740988356L179.61959970474243,140.7831697469228L181.0119997024536,140.44504621255237L182.40439970016482,140.49535989961805L183.796799697876,140.43666649095394L185.18919969558718,140.54873200827979L186.58159969329836,140.74763548444844L187.97399969100954,140.74441795421444L189.36639968872072,140.71735180702626L190.7587996864319,140.72193060005156L192.15119968414305,140.85335433499404L193.54359968185423,141.59761150708755L194.9359996795654,140.95231990779575L196.3283996772766,141.00102482974444L197.72079967498777,141.38019839270464L199.11319967269895,141.4376542897403L200.50559967041013,141.48651832032692L201.89799966812134,141.42124842129442L203.29039966583252,141.29976013685473L204.6827996635437,142.07606886012536L206.07519966125489,141.0395998350773L207.46759965896607,141.75085080416602L208.85999965667725,141.878526646748L210.25239965438843,141.63279219481092L211.6447996520996,141.51784504326451L213.0371996498108,141.91648289626664L214.42959964752197,141.91109088131407L215.82199964523315,141.56831783896814L217.21439964294436,142.13955320666537L218.60679964065554,142.63035031851268L219.99919963836672,141.9735145036011L221.3915996360779,142.3155980751826L222.78399963378908,142.28345813031774L224.17639963150026,142.63521197133878L225.56879962921144,142.13854551862505L226.9611996269226,142.39773348983726L228.35359962463377,142.54667685369122L229.74599962234495,142.45625011112588L231.13839962005613,142.58019574008495L232.53079961776731,142.65909594576806L233.9231996154785,142.87297331264108L235.31559961318968,142.7212013507792L236.70799961090088,142.74545657869703L238.10039960861207,142.6375102072202L239.49279960632325,142.8097541471643L240.88519960403443,143.0631434924603L242.2775996017456,143.34729384109232L243.6699995994568,142.8302791614592L245.06239959716797,143.2255050181143L246.45479959487915,143.21622368090084L247.84719959259033,143.5674471597954L249.2395995903015,143.27613692245586L250.6319995880127,143.13435344730942" fill="none"></path></g></g></g></g></g></g><g transform="translate(51, 177)" clip-path="url(#clip_1)"><clipPath id="clip_1"><rect width="278" height="22"></rect></clipPath><g><g><line x1="0" y1="0" x2="0" y2="5" style="visibility: inherit;" fill="rgb(0, 0, 0)" stroke="rgb(204, 204, 204)" stroke-width="1px"></line><line x1="27.847999954223635" y1="0" x2="27.847999954223635" y2="5" style="visibility: inherit;" fill="rgb(0, 0, 0)" stroke="rgb(204, 204, 204)" stroke-width="1px"></line><line x1="55.69599990844727" y1="0" x2="55.69599990844727" y2="5" style="visibility: inherit;" fill="rgb(0, 0, 0)" stroke="rgb(204, 204, 204)" stroke-width="1px"></line><line x1="83.5439998626709" y1="0" x2="83.5439998626709" y2="5" style="visibility: inherit;" fill="rgb(0, 0, 0)" stroke="rgb(204, 204, 204)" stroke-width="1px"></line><line x1="111.39199981689454" y1="0" x2="111.39199981689454" y2="5" style="visibility: inherit;" fill="rgb(0, 0, 0)" stroke="rgb(204, 204, 204)" stroke-width="1px"></line><line x1="139.23999977111816" y1="0" x2="139.23999977111816" y2="5" style="visibility: inherit;" fill="rgb(0, 0, 0)" stroke="rgb(204, 204, 204)" stroke-width="1px"></line><line x1="167.0879997253418" y1="0" x2="167.0879997253418" y2="5" style="visibility: inherit;" fill="rgb(0, 0, 0)" stroke="rgb(204, 204, 204)" stroke-width="1px"></line><line x1="194.9359996795654" y1="0" x2="194.9359996795654" y2="5" style="visibility: inherit;" fill="rgb(0, 0, 0)" stroke="rgb(204, 204, 204)" stroke-width="1px"></line><line x1="222.78399963378908" y1="0" x2="222.78399963378908" y2="5" style="visibility: inherit;" fill="rgb(0, 0, 0)" stroke="rgb(204, 204, 204)" stroke-width="1px"></line><line x1="250.6319995880127" y1="0" x2="250.6319995880127" y2="5" style="visibility: inherit;" fill="rgb(0, 0, 0)" stroke="rgb(204, 204, 204)" stroke-width="1px"></line><line x1="278.4799995422363" y1="0" x2="278.4799995422363" y2="5" style="visibility: inherit;" fill="rgb(0, 0, 0)" stroke="rgb(204, 204, 204)" stroke-width="1px"></line></g><g transform="translate(0, 8)"><text style="text-anchor: middle; visibility: hidden; font-family: &quot;Helvetica Neue&quot;, sans-serif; font-size: 12px; font-weight: 200;" x="0" y="0" dx="0em" dy="0.95em" fill="rgb(50, 49, 63)" stroke="none" stroke-width="1px">-20</text><text style="text-anchor: middle; visibility: inherit; font-family: &quot;Helvetica Neue&quot;, sans-serif; font-size: 12px; font-weight: 200;" x="27.847999954223635" y="0" dx="0em" dy="0.95em" fill="rgb(50, 49, 63)" stroke="none" stroke-width="1px">0</text><text style="text-anchor: middle; visibility: hidden; font-family: &quot;Helvetica Neue&quot;, sans-serif; font-size: 12px; font-weight: 200;" x="55.69599990844727" y="0" dx="0em" dy="0.95em" fill="rgb(50, 49, 63)" stroke="none" stroke-width="1px">20</text><text style="text-anchor: middle; visibility: inherit; font-family: &quot;Helvetica Neue&quot;, sans-serif; font-size: 12px; font-weight: 200;" x="83.5439998626709" y="0" dx="0em" dy="0.95em" fill="rgb(50, 49, 63)" stroke="none" stroke-width="1px">40</text><text style="text-anchor: middle; visibility: hidden; font-family: &quot;Helvetica Neue&quot;, sans-serif; font-size: 12px; font-weight: 200;" x="111.39199981689454" y="0" dx="0em" dy="0.95em" fill="rgb(50, 49, 63)" stroke="none" stroke-width="1px">60</text><text style="text-anchor: middle; visibility: inherit; font-family: &quot;Helvetica Neue&quot;, sans-serif; font-size: 12px; font-weight: 200;" x="139.23999977111816" y="0" dx="0em" dy="0.95em" fill="rgb(50, 49, 63)" stroke="none" stroke-width="1px">80</text><text style="text-anchor: middle; visibility: hidden; font-family: &quot;Helvetica Neue&quot;, sans-serif; font-size: 12px; font-weight: 200;" x="167.0879997253418" y="0" dx="0em" dy="0.95em" fill="rgb(50, 49, 63)" stroke="none" stroke-width="1px">100</text><text style="text-anchor: middle; visibility: inherit; font-family: &quot;Helvetica Neue&quot;, sans-serif; font-size: 12px; font-weight: 200;" x="194.9359996795654" y="0" dx="0em" dy="0.95em" fill="rgb(50, 49, 63)" stroke="none" stroke-width="1px">120</text><text style="text-anchor: middle; visibility: hidden; font-family: &quot;Helvetica Neue&quot;, sans-serif; font-size: 12px; font-weight: 200;" x="222.78399963378908" y="0" dx="0em" dy="0.95em" fill="rgb(50, 49, 63)" stroke="none" stroke-width="1px">140</text><text style="text-anchor: middle; visibility: inherit; font-family: &quot;Helvetica Neue&quot;, sans-serif; font-size: 12px; font-weight: 200;" x="250.6319995880127" y="0" dx="0em" dy="0.95em" fill="rgb(50, 49, 63)" stroke="none" stroke-width="1px">160</text><text style="text-anchor: middle; visibility: hidden; font-family: &quot;Helvetica Neue&quot;, sans-serif; font-size: 12px; font-weight: 200;" x="278.4799995422363" y="0" dx="0em" dy="0.95em" fill="rgb(50, 49, 63)" stroke="none" stroke-width="1px">180</text></g><line x1="0" y1="0" x2="278.4799995422363" y2="0" fill="rgb(0, 0, 0)" stroke="rgb(204, 204, 204)" stroke-width="1px"></line></g></g></g></g></svg>