<svg viewBox="0 0 330 200" xmlns="http://www.w3.org/2000/svg"><g><g><g><g><g><line x1="41.140000343322754" y1="177.95999908447266" x2="36.140000343322754" y2="177.95999908447266" style="visibility: inherit;" fill="rgb(0, 0, 0)" stroke="rgb(204, 204, 204)" stroke-width="1px"></line><line x1="41.140000343322754" y1="165.2485705784389" x2="36.140000343322754" y2="165.2485705784389" style="visibility: inherit;" fill="rgb(0, 0, 0)" stroke="rgb(204, 204, 204)" stroke-width="1px"></line><line x1="41.140000343322754" y1="152.53714207240515" x2="36.140000343322754" y2="152.53714207240515" style="visibility: inherit;" fill="rgb(0, 0, 0)" stroke="rgb(204, 204, 204)" stroke-width="1px"></line><line x1="41.140000343322754" y1="139.82571356637135" x2="36.140000343322754" y2="139.82571356637135" style="visibility: inherit;" fill="rgb(0, 0, 0)" stroke="rgb(204, 204, 204)" stroke-width="1px"></line><line x1="41.140000343322754" y1="127.11428506033762" x2="36.140000343322754" y2="127.11428506033762" style="visibility: inherit;" fill="rgb(0, 0, 0)" stroke="rgb(204, 204, 204)" stroke-width="1px"></line><line x1="41.140000343322754" y1="114.40285655430385" x2="36.140000343322754" y2="114.40285655430385" style="visibility: inherit;" fill="rgb(0, 0, 0)" stroke="rgb(204, 204, 204)" stroke-width="1px"></line><line x1="41.140000343322754" y1="101.69142804827007" x2="36.140000343322754" y2="101.69142804827007" style="visibility: inherit;" fill="rgb(0, 0, 0)" stroke="rgb(204, 204, 204)" stroke-width="1px"></line><line x1="41.140000343322754" y1="88.97999954223631" x2="36.140000343322754" y2="88.97999954223631" style="visibility: inherit;" fill="rgb(0, 0, 0)" stroke="rgb(204, 204, 204)" stroke-width="1px"></line><line x1="41.140000343322754" y1="76.26857103620259" x2="36.140000343322754" y2="76.26857103620259" style="visibility: inherit;" fill="rgb(0, 0, 0)" stroke="rgb(204, 204, 204)" stroke-width="1px"></line><line x1="41.140000343322754" y1="63.55714253016882" x2="36.140000343322754" y2="63.55714253016882" style="visibility: inherit;" fill="rgb(0, 0, 0)" stroke="rgb(204, 204, 204)" stroke-width="1px"></line><line x1="41.140000343322754" y1="50.84571402413505" x2="36.140000343322754" y2="50.84571402413505" style="visibility: inherit;" fill="rgb(0, 0, 0)" stroke="rgb(204, 204, 204)" stroke-width="1px"></line><line x1="41.140000343322754" y1="38.13428551810128" x2="36.140000343322754" y2="38.13428551810128" style="visibility: inherit;" fill="rgb(0, 0, 0)" stroke="rgb(204, 204, 204)" stroke-width="1px"></line><line x1="41.140000343322754" y1="25.42285701206748" x2="36.140000343322754" y2="25.42285701206748" style="visibility: inherit;" fill="rgb(0, 0, 0)" stroke="rgb(204, 204, 204)" stroke-width="1px"></line><line x1="41.140000343322754" y1="12.71142850603377" x2="36.140000343322754" y2="12.71142850603377" style="visibility: inherit;" fill="rgb(0, 0, 0)" stroke="rgb(204, 204, 204)" stroke-width="1px"></line><line x1="41.140000343322754" y1="0" x2="36.140000343322754" y2="0" style="visibility: inherit;" fill="rgb(0, 0, 0)" stroke="rgb(204, 204, 204)" stroke-width="1px"></line></g><g transform="translate(31.140000343322754, 0)"><text style="text-anchor: end; visibility: hidden; font-family: &quot;Helvetica Neue&quot;, sans-serif; font-size: 12px; font-weight: 200;" x="0" y="177.95999908447266" dx="0em" dy="0.3em" fill="rgb(50, 49, 63)" stroke="none" stroke-width="1px">1.5</text><text style="text-anchor: end; visibility: inherit; font-family: &quot;Helvetica Neue&quot;, sans-serif; font-size: 12px; font-weight: 200;" x="0" y="165.2485705784389" dx="0em" dy="0.3em" fill="rgb(50, 49, 63)" stroke="none" stroke-width="1px">1.6</text><text style="text-anchor: end; visibility: hidden; font-family: &quot;Helvetica Neue&quot;, sans-serif; font-size: 12px; font-weight: 200;" x="0" y="152.53714207240515" dx="0em" dy="0.3em" fill="rgb(50, 49, 63)" stroke="none" stroke-width="1px">1.7</text><text style="text-anchor: end; visibility: inherit; font-family: &quot;Helvetica Neue&quot;, sans-serif; font-size: 12px; font-weight: 200;" x="0" y="139.82571356637135" dx="0em" dy="0.3em" fill="rgb(50, 49, 63)" stroke="none" stroke-width="1px">1.8</text><text style="text-anchor: end; visibility: hidden; font-family: &quot;Helvetica Neue&quot;, sans-serif; font-size: 12px; font-weight: 200;" x="0" y="127.11428506033762" dx="0em" dy="0.3em" fill="rgb(50, 49, 63)" stroke="none" stroke-width="1px">1.9</text><text style="text-anchor: end; visibility: inherit; font-family: &quot;Helvetica Neue&quot;, sans-serif; font-size: 12px; font-weight: 200;" x="0" y="114.40285655430385" dx="0em" dy="0.3em" fill="rgb(50, 49, 63)" stroke="none" stroke-width="1px">2</text><text style="text-anchor: end; visibility: hidden; font-family: &quot;Helvetica Neue&quot;, sans-serif; font-size: 12px; font-weight: 200;" x="0" y="101.69142804827007" dx="0em" dy="0.3em" fill="rgb(50, 49, 63)" stroke="none" stroke-width="1px">2.1</text><text style="text-anchor: end; visibility: inherit; font-family: &quot;Helvetica Neue&quot;, sans-serif; font-size: 12px; font-weight: 200;" x="0" y="88.97999954223631" dx="0em" dy="0.3em" fill="rgb(50, 49, 63)" stroke="none" stroke-width="1px">2.2</text><text style="text-anchor: end; visibility: hidden; font-family: &quot;Helvetica Neue&quot;, sans-serif; font-size: 12px; font-weight: 200;" x="0" y="76.26857103620259" dx="0em" dy="0.3em" fill="rgb(50, 49, 63)" stroke="none" stroke-width="1px">2.3</text><text style="text-anchor: end; visibility: inherit; font-family: &quot;Helvetica Neue&quot;, sans-serif; font-size: 12px; font-weight: 200;" x="0" y="63.55714253016882" dx="0em" dy="0.3em" fill="rgb(50, 49, 63)" stroke="none" stroke-width="1px">2.4</text><text style="text-anchor: end; visibility: hidden; font-family: &quot;Helvetica Neue&quot;, sans-serif; font-size: 12px; font-weight: 200;" x="0" y="50.84571402413505" dx="0em" dy="0.3em" fill="rgb(50, 49, 63)" stroke="none" stroke-width="1px">2.5</text><text style="text-anchor: end; visibility: inherit; font-family: &quot;Helvetica Neue&quot;, sans-serif; font-size: 12px; font-weight: 200;" x="0" y="38.13428551810128" dx="0em" dy="0.3em" fill="rgb(50, 49, 63)" stroke="none" stroke-width="1px">2.6</text><text style="text-anchor: end; visibility: hidden; font-family: &quot;Helvetica Neue&quot;, sans-serif; font-size: 12px; font-weight: 200;" x="0" y="25.42285701206748" dx="0em" dy="0.3em" fill="rgb(50, 49, 63)" stroke="none" stroke-width="1px">2.7</text><text style="text-anchor: end; visibility: inherit; font-family: &quot;Helvetica Neue&quot;, sans-serif; font-size: 12px; font-weight: 200;" x="0" y="12.71142850603377" dx="0em" dy="0.3em" fill="rgb(50, 49, 63)" stroke="none" stroke-width="1px">2.8</text><text style="text-anchor: end; visibility: hidden; font-family: &quot;Helvetica Neue&quot;, sans-serif; font-size: 12px; font-weight: 200;" x="0" y="0" dx="0em" dy="0.3em" fill="rgb(50, 49, 63)" stroke="none" stroke-width="1px">2.9</text></g><line x1="41.140000343322754" y1="0" x2="41.140000343322754" y2="177.95999908447266" fill="rgb(0, 0, 0)" stroke="rgb(204, 204, 204)" stroke-width="1px"></line></g></g><g transform="translate(41, 0)" clip-path="url(#clip_0)"><clipPath id="clip_0"><rect width="288" height="177"></rect></clipPath><g><g><g><line x1="0" y1="0" x2="0" y2="177.95999908447266" fill="rgb(0, 0, 0)" stroke="rgb(60, 60, 60)" stroke-width="1px" opacity="0.25"></line><line x1="28.885999965667725" y1="0" x2="28.885999965667725" y2="177.95999908447266" fill="rgb(0, 0, 0)" stroke="rgb(60, 60, 60)" stroke-width="1px" opacity="0.25"></line><line x1="57.77199993133545" y1="0" x2="57.77199993133545" y2="177.95999908447266" fill="rgb(0, 0, 0)" stroke="rgb(60, 60, 60)" stroke-width="1px" opacity="0.25"></line><line x1="86.65799989700317" y1="0" x2="86.65799989700317" y2="177.95999908447266" fill="rgb(0, 0, 0)" stroke="rgb(60, 60, 60)" stroke-width="1px" opacity="0.25"></line><line x1="115.5439998626709" y1="0" x2="115.5439998626709" y2="177.95999908447266" fill="rgb(0, 0, 0)" stroke="rgb(60, 60, 60)" stroke-width="1px" opacity="0.25"></line><line x1="144.42999982833862" y1="0" x2="144.42999982833862" y2="177.95999908447266" fill="rgb(0, 0, 0)" stroke="rgb(60, 60, 60)" stroke-width="1px" opacity="0.25"></line><line x1="173.31599979400633" y1="0" x2="173.31599979400633" y2="177.95999908447266" fill="rgb(0, 0, 0)" stroke="rgb(60, 60, 60)" stroke-width="1px" opacity="0.25"></line><line x1="202.20199975967407" y1="0" x2="202.20199975967407" y2="177.95999908447266" fill="rgb(0, 0, 0)" stroke="rgb(60, 60, 60)" stroke-width="1px" opacity="0.25"></line><line x1="231.0879997253418" y1="0" x2="231.0879997253418" y2="177.95999908447266" fill="rgb(0, 0, 0)" stroke="rgb(60, 60, 60)" stroke-width="1px" opacity="0.25"></line><line x1="259.9739996910095" y1="0" x2="259.9739996910095" y2="177.95999908447266" fill="rgb(0, 0, 0)" stroke="rgb(60, 60, 60)" stroke-width="1px" opacity="0.25"></line><line x1="288.85999965667725" y1="0" x2="288.85999965667725" y2="177.95999908447266" fill="rgb(0, 0, 0)" stroke="rgb(60, 60, 60)" stroke-width="1px" opacity="0.25"></line></g><g><line x1="0" y1="177.95999908447266" x2="288.85999965667725" y2="177.95999908447266" fill="rgb(0, 0, 0)" stroke="rgb(60, 60, 60)" stroke-width="1px" opacity="0.25"></line><line x1="0" y1="165.2485705784389" x2="288.85999965667725" y2="165.2485705784389" fill="rgb(0, 0, 0)" stroke="rgb(60, 60, 60)" stroke-width="1px" opacity="0.25"></line><line x1="0" y1="152.53714207240515" x2="288.85999965667725" y2="152.53714207240515" fill="rgb(0, 0, 0)" stroke="rgb(60, 60, 60)" stroke-width="1px" opacity="0.25"></line><line x1="0" y1="139.82571356637135" x2="288.85999965667725" y2="139.82571356637135" fill="rgb(0, 0, 0)" stroke="rgb(60, 60, 60)" stroke-width="1px" opacity="0.25"></line><line x1="0" y1="127.11428506033762" x2="288.85999965667725" y2="127.11428506033762" fill="rgb(0, 0, 0)" stroke="rgb(60, 60, 60)" stroke-width="1px" opacity="0.25"></line><line x1="0" y1="114.40285655430385" x2="288.85999965667725" y2="114.40285655430385" fill="rgb(0, 0, 0)" stroke="rgb(60, 60, 60)" stroke-width="1px" opacity="0.25"></line><line x1="0" y1="101.69142804827007" x2="288.85999965667725" y2="101.69142804827007" fill="rgb(0, 0, 0)" stroke="rgb(60, 60, 60)" stroke-width="1px" opacity="0.25"></line><line x1="0" y1="88.97999954223631" x2="288.85999965667725" y2="88.97999954223631" fill="rgb(0, 0, 0)" stroke="rgb(60, 60, 60)" stroke-width="1px" opacity="0.25"></line><line x1="0" y1="76.26857103620259" x2="288.85999965667725" y2="76.26857103620259" fill="rgb(0, 0, 0)" stroke="rgb(60, 60, 60)" stroke-width="1px" opacity="0.25"></line><line x1="0" y1="63.55714253016882" x2="288.85999965667725" y2="63.55714253016882" fill="rgb(0, 0, 0)" stroke="rgb(60, 60, 60)" stroke-width="1px" opacity="0.25"></line><line x1="0" y1="50.84571402413505" x2="288.85999965667725" y2="50.84571402413505" fill="rgb(0, 0, 0)" stroke="rgb(60, 60, 60)" stroke-width="1px" opacity="0.25"></line><line x1="0" y1="38.13428551810128" x2="288.85999965667725" y2="38.13428551810128" fill="rgb(0, 0, 0)" stroke="rgb(60, 60, 60)" stroke-width="1px" opacity="0.25"></line><line x1="0" y1="25.42285701206748" x2="288.85999965667725" y2="25.42285701206748" fill="rgb(0, 0, 0)" stroke="rgb(60, 60, 60)" stroke-width="1px" opacity="0.25"></line><line x1="0" y1="12.71142850603377" x2="288.85999965667725" y2="12.71142850603377" fill="rgb(0, 0, 0)" stroke="rgb(60, 60, 60)" stroke-width="1px" opacity="0.25"></line><line x1="0" y1="0" x2="288.85999965667725" y2="0" fill="rgb(0, 0, 0)" stroke="rgb(60, 60, 60)" stroke-width="1px" opacity="0.25"></line></g></g></g><g><g><line x1="0" y1="368.6314266749791" x2="288.85999965667725" y2="368.6314266749791" fill="rgb(0, 0, 0)" stroke="rgb(153, 153, 153)" stroke-width="1.5px"></line></g></g><g><g><line x1="28.885999965667725" y1="0" x2="28.885999965667725" y2="177.95999908447266" fill="rgb(0, 0, 0)" stroke="rgb(153, 153, 153)" stroke-width="1.5px"></line></g></g><g><g><g><g><g><path style="fill: none;" stroke="rgb(187, 187, 187)" stroke-width="2px" d="M33.21889996051789,-12.544985717539817L34.663199958801265,6.023598458772511L36.107499957084656,27.68631528098635L37.55179995536805,35.61253180166307L38.99609995365143,42.7577219016774L40.44039995193482,50.13836247944293L41.8846999502182,55.674221742857426L43.32899994850158,56.8052265541841L44.773299946784974,61.784660180899905L46.21759994506836,64.69113555324813L47.66189994335175,64.69183260061436L49.10619994163513,70.69789577216501L50.55049993991852,73.60318919463134L51.9947999382019,77.08597120681952L53.43909993648529,50.429637359307364L54.883399934768676,61.59515421650576L56.32769993305207,70.95774290773443L57.77199993133545,77.79432286295014L59.216299929618835,81.73536805882681L60.66059992790222,85.14999096116011L62.10489992618561,89.37961376665797L63.549199924468994,90.54174325820739L64.99349992275238,86.00105548892549L66.43779992103578,71.90099952628614L67.88209991931915,83.55787416386556L69.32639991760253,91.10316945209863L70.77069991588593,93.83044303851004L72.21499991416931,94.31319379923842L73.6592999124527,96.29144453101979L75.1035999107361,99.4029427482627L76.54789990901948,99.9599442066987L77.99219990730286,100.2945572488986L79.43649990558625,100.95947982347207L80.88079990386964,102.2053156117841L82.32509990215301,102.76255952147793L83.7693999004364,104.3113078500298L85.21369989871978,102.3076603489917L86.65799989700317,101.3526751508429L88.10229989528656,109.19945857817609L89.54659989356995,119.89516551053228L90.99089989185333,105.60472469768916L92.43519989013672,117.32919777658974L93.87949988842011,114.9548574555473L95.3237998867035,122.1314298402458L96.76809988498688,124.08886007026182L98.21239988327027,126.16209108229447L99.65669988155364,128.67571965095496L101.10099987983703,129.2262809978551L102.54529987812042,130.83918799050778L103.9895998764038,132.44363949554398L105.43389987468719,131.89419948571128L106.87819987297058,130.80798754426698L108.32249987125397,133.00849031345194L109.76679986953735,135.6997901944842L111.21109986782075,136.7486797954277L112.65539986610413,129.7998752142482L114.09969986438752,133.12801878355756L115.5439998626709,126.18135080408761L116.9882998609543,127.61369222247828L118.43259985923767,133.41070179697297L119.87689985752105,135.4701585469207L121.32119985580444,135.31918717931643L122.76549985408782,136.86320770834078L124.20979985237122,139.41721956463203L125.6540998506546,140.06638280744716L127.09839984893799,140.34303484582426L128.54269984722137,141.12309146145537L129.98699984550476,142.665611823322L131.43129984378814,135.2520887937145L132.87559984207155,138.47123536942985L134.31989984035494,142.7483028554425L135.7641998386383,142.25327799978692L137.20849983692167,144.78510556598758L138.65279983520506,146.16598670490578L140.09709983348847,147.58588734312954L141.54139983177186,149.04539845559975L142.98569983005524,149.24173851482374L144.42999982833862,149.20703767854815L145.874299826622,149.97739624386642L147.3185998249054,150.02446209429087L148.76289982318877,150.55912773060012L150.2071998214722,150.3947154713904L151.65149981975557,151.06065331060603L153.09579981803896,150.6993403236386L154.54009981632234,151.066775204866L155.98439981460572,151.03512016251676L157.4286998128891,151.2620393866334L158.8729998111725,151.11964473227454L160.31729980945587,151.6901022355196L161.7615998077393,151.6264284739344L163.20589980602261,152.37960330635462L164.65019980430603,151.4099649603113L166.0944998025894,151.60342591084867L167.5387998008728,151.80417555232427L168.98309979915618,151.99993978981092L170.42739979743956,152.35851004692424L171.87169979572295,152.01857823025588L173.31599979400633,152.63260119389062L174.76029979228971,152.37843650967636L176.20459979057313,152.75287217097332" fill="none"></path></g><g><path style="fill: none;" stroke="rgb(238, 51, 119)" stroke-width="2px" d="M34.663199958801265,-20.114435212333262L36.107499957084656,0.33775278598866976L37.55179995536805,17.205086792579863L38.99609995365143,28.89702594332161L40.44039995193482,40.612331334035844L41.8846999502182,39.71271594189187L43.32899994850158,47.96799943224582L44.773299946784974,53.66345223612083L46.21759994506836,51.20639057655066L47.66189994335175,60.6806280720058L49.10619994163513,67.91594942711501L50.55049993991852,70.6158563277999L51.9947999382019,77.39582391431446L53.43909993648529,78.29377245406093L54.883399934768676,82.95350379093283L56.32769993305207,84.48155284334825L57.77199993133545,86.17583253940704L59.216299929618835,89.53278234878624L60.66059992790222,91.45814839995545L62.10489992618561,92.40455688485885L63.549199924468994,92.64491700058092L64.99349992275238,95.1554694689078L66.43779992103578,95.53887582674412L67.88209991931915,96.35554258230617L69.32639991760253,97.92238383597292L70.77069991588593,99.94239679691393L72.21499991416931,101.91476808569314L73.6592999124527,101.12752885154909L75.1035999107361,101.76441799943703L76.54789990901948,102.34369466718532L77.99219990730286,104.38871041408908L79.43649990558625,103.18436409727161L80.88079990386964,105.34133171247413L82.32509990215301,107.59234010930388L83.7693999004364,106.1761520059655L85.21369989871978,106.30992448746812L86.65799989700317,107.92643794258089L88.10229989528656,110.82506395545715L89.54659989356995,111.03617838820459L90.99089989185333,111.82832726031951L92.43519989013672,111.48971377236558L93.87949988842011,111.8112950594576L95.3237998867035,111.65430787001866L96.76809988498688,110.8781607809199L98.21239988327027,111.98967857239924L99.65669988155364,111.76377461292473L101.10099987983703,110.18672010002228L102.54529987812042,113.8758887454304L103.9895998764038,112.17360815786353L105.43389987468719,112.74470209566036L106.87819987297058,115.15542525857953L108.32249987125397,116.78418250221226L109.76679986953735,115.29318303263256L111.21109986782075,116.51100054746269L112.65539986610413,116.18013034655542L114.09969986438752,115.30997278223666L115.5439998626709,117.94288736974497L116.9882998609543,119.62287759479594L118.43259985923767,120.46719894695318L119.87689985752105,120.99546993133741L121.32119985580444,121.28177456041651L122.76549985408782,120.8413921569923L124.20979985237122,121.04768787099056L125.6540998506546,120.63012619220873L127.09839984893799,120.47941242906589L128.54269984722137,122.17684399147635L129.98699984550476,122.85773804265877L131.43129984378814,122.6971140843525L132.87559984207155,124.49163222231657L134.31989984035494,125.2703856624369L135.7641998386383,125.31173875509896L137.20849983692167,123.96648279787678L138.65279983520506,124.5504266523381L140.09709983348847,120.25666033594305L141.54139983177186,125.20286298713381L142.98569983005524,127.6207384621587L144.42999982833862,125.36712371430738L145.874299826622,126.65253967045867L147.3185998249054,127.79984932887379L148.76289982318877,101.8026040725438L150.2071998214722,116.61478483901361L151.65149981975557,124.40804715118286L153.09579981803896,126.5696667998948L154.54009981632234,128.00152331576984L155.98439981460572,128.53329469018888L157.4286998128891,129.3744338695872L158.8729998111725,129.83795521492968L160.31729980945587,130.8305203580407L161.7615998077393,129.98769917304122L163.20589980602261,130.4638582901976L164.65019980430603,130.63180124584935L166.0944998025894,130.49619522670946L167.5387998008728,131.22053351265265L168.98309979915618,131.03380058451978L170.42739979743956,128.78827764739825L171.87169979572295,130.47413216224777L173.31599979400633,132.75334067100277L174.76029979228971,133.63722703779564L176.20459979057313,132.0834781520512L177.6488997888565,128.46004410391976L179.0931997871399,131.64629307458952L180.53749978542328,133.94692821325447L181.98179978370666,133.0572381694775L183.42609978199005,133.9369877116838L184.87039978027343,132.98160853024103L186.31469977855684,135.3748448961899L187.75899977684023,135.44645893646873L189.2032997751236,134.72189335247134L190.647599773407,136.3706679780779L192.09189977169038,132.0029237216403L193.53619976997376,133.96121768426227L194.98049976825715,137.7243188101021L196.42479976654053,138.99596050416847L197.86909976482394,139.64397210350893L199.31339976310727,139.7811085962138L200.75769976139068,140.64228031078957L202.20199975967407,139.884135227584L203.64629975795745,140.12914737681552L205.09059975624083,140.25579785261965L206.53489975452422,140.6369160767103L207.9791997528076,140.7799320124173L209.423499751091,141.07229792294194L210.86779974937437,141.12292477621565L212.31209974765778,141.2027215464459L213.75639974594117,141.11639374545808L215.20069974422455,141.0564325187583L216.64499974250793,140.99869881298972L218.08929974079132,141.62854172119725L219.5335997390747,141.3117639996508L220.9778997373581,141.5605341433785L222.4221997356415,141.22031441584153L223.86649973392488,141.3120064509086L225.31079973220827,141.23222483388196L226.75509973049165,141.70862640229618L228.19939972877503,141.34314628433498L229.64369972705842,141.7978484651742L231.0879997253418,141.79140835363836L232.5322997236252,141.76396590189376L233.9765997219086,141.97517125386287L235.42089972019193,141.90208735283352L236.86519971847534,141.73585670919016L238.30949971675872,141.9317118658985L239.7537997150421,142.0268133717787L241.1980997133255,142.31184513175424L242.64239971160887,142.4386319863909L244.08669970989226,142.46557438241624L245.53099970817564,142.49435031607885L246.97529970645903,142.38761114982324L248.41959970474244,142.0191003911393L249.86389970302582,141.97950507009642L251.3081997013092,142.51048847792754L252.7524996995926,142.7198905986666L254.19679969787597,142.8781355040055L255.64109969615936,142.9251104352083L257.08539969444274,142.83776736957836" fill="none"></path></g></g></g></g></g></g><g transform="translate(41, 177)" clip-path="url(#clip_1)"><clipPath id="clip_1"><rect width="288" height="22"></rect></clipPath><g><g><line x1="0" y1="0" x2="0" y2="5" style="visibility: inherit;" fill="rgb(0, 0, 0)" stroke="rgb(204, 204, 204)" stroke-width="1px"></line><line x1="28.885999965667725" y1="0" x2="28.885999965667725" y2="5" style="visibility: inherit;" fill="rgb(0, 0, 0)" stroke="rgb(204, 204, 204)" stroke-width="1px"></line><line x1="57.77199993133545" y1="0" x2="57.77199993133545" y2="5" style="visibility: inherit;" fill="rgb(0, 0, 0)" stroke="rgb(204, 204, 204)" stroke-width="1px"></line><line x1="86.65799989700317" y1="0" x2="86.65799989700317" y2="5" style="visibility: inherit;" fill="rgb(0, 0, 0)" stroke="rgb(204, 204, 204)" stroke-width="1px"></line><line x1="115.5439998626709" y1="0" x2="115.5439998626709" y2="5" style="visibility: inherit;" fill="rgb(0, 0, 0)" stroke="rgb(204, 204, 204)" stroke-width="1px"></line><line x1="144.42999982833862" y1="0" x2="144.42999982833862" y2="5" style="visibility: inherit;" fill="rgb(0, 0, 0)" stroke="rgb(204, 204, 204)" stroke-width="1px"></line><line x1="173.31599979400633" y1="0" x2="173.31599979400633" y2="5" style="visibility: inherit;" fill="rgb(0, 0, 0)" stroke="rgb(204, 204, 204)" stroke-width="1px"></line><line x1="202.20199975967407" y1="0" x2="202.20199975967407" y2="5" style="visibility: inherit;" fill="rgb(0, 0, 0)" stroke="rgb(204, 204, 204)" stroke-width="1px"></line><line x1="231.0879997253418" y1="0" x2="231.0879997253418" y2="5" style="visibility: inherit;" fill="rgb(0, 0, 0)" stroke="rgb(204, 204, 204)" stroke-width="1px"></line><line x1="259.9739996910095" y1="0" x2="259.9739996910095" y2="5" style="visibility: inherit;" fill="rgb(0, 0, 0)" stroke="rgb(204, 204, 204)" stroke-width="1px"></line><line x1="288.85999965667725" y1="0" x2="288.85999965667725" y2="5" style="visibility: inherit;" fill="rgb(0, 0, 0)" stroke="rgb(204, 204, 204)" stroke-width="1px"></line></g><g transform="translate(0, 8)"><text style="text-anchor: middle; visibility: hidden; font-family: &quot;Helvetica Neue&quot;, sans-serif; font-size: 12px; font-weight: 200;" x="0" y="0" dx="0em" dy="0.95em" fill="rgb(50, 49, 63)" stroke="none" stroke-width="1px">-20</text><text style="text-anchor: middle; visibility: inherit; font-family: &quot;Helvetica Neue&quot;, sans-serif; font-size: 12px; font-weight: 200;" x="28.885999965667725" y="0" dx="0em" dy="0.95em" fill="rgb(50, 49, 63)" stroke="none" stroke-width="1px">0</text><text style="text-anchor: middle; visibility: hidden; font-family: &quot;Helvetica Neue&quot;, sans-serif; font-size: 12px; font-weight: 200;" x="57.77199993133545" y="0" dx="0em" dy="0.95em" fill="rgb(50, 49, 63)" stroke="none" stroke-width="1px">20</text><text style="text-anchor: middle; visibility: inherit; font-family: &quot;Helvetica Neue&quot;, sans-serif; font-size: 12px; font-weight: 200;" x="86.65799989700317" y="0" dx="0em" dy="0.95em" fill="rgb(50, 49, 63)" stroke="none" stroke-width="1px">40</text><text style="text-anchor: middle; visibility: hidden; font-family: &quot;Helvetica Neue&quot;, sans-serif; font-size: 12px; font-weight: 200;" x="115.5439998626709" y="0" dx="0em" dy="0.95em" fill="rgb(50, 49, 63)" stroke="none" stroke-width="1px">60</text><text style="text-anchor: middle; visibility: inherit; font-family: &quot;Helvetica Neue&quot;, sans-serif; font-size: 12px; font-weight: 200;" x="144.42999982833862" y="0" dx="0em" dy="0.95em" fill="rgb(50, 49, 63)" stroke="none" stroke-width="1px">80</text><text style="text-anchor: middle; visibility: hidden; font-family: &quot;Helvetica Neue&quot;, sans-serif; font-size: 12px; font-weight: 200;" x="173.31599979400633" y="0" dx="0em" dy="0.95em" fill="rgb(50, 49, 63)" stroke="none" stroke-width="1px">100</text><text style="text-anchor: middle; visibility: inherit; font-family: &quot;Helvetica Neue&quot;, sans-serif; font-size: 12px; font-weight: 200;" x="202.20199975967407" y="0" dx="0em" dy="0.95em" fill="rgb(50, 49, 63)" stroke="none" stroke-width="1px">120</text><text style="text-anchor: middle; visibility: hidden; font-family: &quot;Helvetica Neue&quot;, sans-serif; font-size: 12px; font-weight: 200;" x="231.0879997253418" y="0" dx="0em" dy="0.95em" fill="rgb(50, 49, 63)" stroke="none" stroke-width="1px">140</text><text style="text-anchor: middle; visibility: inherit; font-family: &quot;Helvetica Neue&quot;, sans-serif; font-size: 12px; font-weight: 200;" x="259.9739996910095" y="0" dx="0em" dy="0.95em" fill="rgb(50, 49, 63)" stroke="none" stroke-width="1px">160</text><text style="text-anchor: middle; visibility: hidden; font-family: &quot;Helvetica Neue&quot;, sans-serif; font-size: 12px; font-weight: 200;" x="288.85999965667725" y="0" dx="0em" dy="0.95em" fill="rgb(50, 49, 63)" stroke="none" stroke-width="1px">180</text></g><line x1="0" y1="0" x2="288.85999965667725" y2="0" fill="rgb(0, 0, 0)" stroke="rgb(204, 204, 204)" stroke-width="1px"></line></g></g></g></g></svg>