<svg viewBox="0 0 330 200" xmlns="http://www.w3.org/2000/svg"><g><g><g><g><g><line x1="61.90000057220459" y1="177.95999908447266" x2="56.90000057220459" y2="177.95999908447266" style="visibility: inherit;" fill="rgb(0, 0, 0)" stroke="rgb(204, 204, 204)" stroke-width="1px"></line><line x1="61.90000057220459" y1="158.1866658528646" x2="56.90000057220459" y2="158.1866658528646" style="visibility: inherit;" fill="rgb(0, 0, 0)" stroke="rgb(204, 204, 204)" stroke-width="1px"></line><line x1="61.90000057220459" y1="138.4133326212565" x2="56.90000057220459" y2="138.4133326212565" style="visibility: inherit;" fill="rgb(0, 0, 0)" stroke="rgb(204, 204, 204)" stroke-width="1px"></line><line x1="61.90000057220459" y1="118.63999938964844" x2="56.90000057220459" y2="118.63999938964844" style="visibility: inherit;" fill="rgb(0, 0, 0)" stroke="rgb(204, 204, 204)" stroke-width="1px"></line><line x1="61.90000057220459" y1="98.86666615804036" x2="56.90000057220459" y2="98.86666615804036" style="visibility: inherit;" fill="rgb(0, 0, 0)" stroke="rgb(204, 204, 204)" stroke-width="1px"></line><line x1="61.90000057220459" y1="79.09333292643228" x2="56.90000057220459" y2="79.09333292643228" style="visibility: inherit;" fill="rgb(0, 0, 0)" stroke="rgb(204, 204, 204)" stroke-width="1px"></line><line x1="61.90000057220459" y1="59.31999969482422" x2="56.90000057220459" y2="59.31999969482422" style="visibility: inherit;" fill="rgb(0, 0, 0)" stroke="rgb(204, 204, 204)" stroke-width="1px"></line><line x1="61.90000057220459" y1="39.546666463216155" x2="56.90000057220459" y2="39.546666463216155" style="visibility: inherit;" fill="rgb(0, 0, 0)" stroke="rgb(204, 204, 204)" stroke-width="1px"></line><line x1="61.90000057220459" y1="19.773333231608092" x2="56.90000057220459" y2="19.773333231608092" style="visibility: inherit;" fill="rgb(0, 0, 0)" stroke="rgb(204, 204, 204)" stroke-width="1px"></line><line x1="61.90000057220459" y1="0" x2="56.90000057220459" y2="0" style="visibility: inherit;" fill="rgb(0, 0, 0)" stroke="rgb(204, 204, 204)" stroke-width="1px"></line></g><g transform="translate(51.90000057220459, 0)"><text style="text-anchor: end; visibility: hidden; font-family: &quot;Helvetica Neue&quot;, sans-serif; font-size: 12px; font-weight: 200;" x="0" y="177.95999908447266" dx="0em" dy="0.3em" fill="rgb(50, 49, 63)" stroke="none" stroke-width="1px">-0.05</text><text style="text-anchor: end; visibility: inherit; font-family: &quot;Helvetica Neue&quot;, sans-serif; font-size: 12px; font-weight: 200;" x="0" y="158.1866658528646" dx="0em" dy="0.3em" fill="rgb(50, 49, 63)" stroke="none" stroke-width="1px">0</text><text style="text-anchor: end; visibility: hidden; font-family: &quot;Helvetica Neue&quot;, sans-serif; font-size: 12px; font-weight: 200;" x="0" y="138.4133326212565" dx="0em" dy="0.3em" fill="rgb(50, 49, 63)" stroke="none" stroke-width="1px">0.05</text><text style="text-anchor: end; visibility: inherit; font-family: &quot;Helvetica Neue&quot;, sans-serif; font-size: 12px; font-weight: 200;" x="0" y="118.63999938964844" dx="0em" dy="0.3em" fill="rgb(50, 49, 63)" stroke="none" stroke-width="1px">0.1</text><text style="text-anchor: end; visibility: hidden; font-family: &quot;Helvetica Neue&quot;, sans-serif; font-size: 12px; font-weight: 200;" x="0" y="98.86666615804036" dx="0em" dy="0.3em" fill="rgb(50, 49, 63)" stroke="none" stroke-width="1px">0.15</text><text style="text-anchor: end; visibility: inherit; font-family: &quot;Helvetica Neue&quot;, sans-serif; font-size: 12px; font-weight: 200;" x="0" y="79.09333292643228" dx="0em" dy="0.3em" fill="rgb(50, 49, 63)" stroke="none" stroke-width="1px">0.2</text><text style="text-anchor: end; visibility: hidden; font-family: &quot;Helvetica Neue&quot;, sans-serif; font-size: 12px; font-weight: 200;" x="0" y="59.31999969482422" dx="0em" dy="0.3em" fill="rgb(50, 49, 63)" stroke="none" stroke-width="1px">0.25</text><text style="text-anchor: end; visibility: inherit; font-family: &quot;Helvetica Neue&quot;, sans-serif; font-size: 12px; font-weight: 200;" x="0" y="39.546666463216155" dx="0em" dy="0.3em" fill="rgb(50, 49, 63)" stroke="none" stroke-width="1px">0.3</text><text style="text-anchor: end; visibility: hidden; font-family: &quot;Helvetica Neue&quot;, sans-serif; font-size: 12px; font-weight: 200;" x="0" y="19.773333231608092" dx="0em" dy="0.3em" fill="rgb(50, 49, 63)" stroke="none" stroke-width="1px">0.35</text><text style="text-anchor: end; visibility: hidden; font-family: &quot;Helvetica Neue&quot;, sans-serif; font-size: 12px; font-weight: 200;" x="0" y="0" dx="0em" dy="0.3em" fill="rgb(50, 49, 63)" stroke="none" stroke-width="1px">0.4</text></g><line x1="61.90000057220459" y1="0" x2="61.90000057220459" y2="177.95999908447266" fill="rgb(0, 0, 0)" stroke="rgb(204, 204, 204)" stroke-width="1px"></line></g></g><g transform="translate(61, 0)" clip-path="url(#clip_0)"><clipPath id="clip_0"><rect width="268" height="177"></rect></clipPath><g><g><g><line x1="0" y1="0" x2="0" y2="177.95999908447266" fill="rgb(0, 0, 0)" stroke="rgb(60, 60, 60)" stroke-width="1px" opacity="0.25"></line><line x1="20.623076879061188" y1="0" x2="20.623076879061188" y2="177.95999908447266" fill="rgb(0, 0, 0)" stroke="rgb(60, 60, 60)" stroke-width="1px" opacity="0.25"></line><line x1="41.246153758122375" y1="0" x2="41.246153758122375" y2="177.95999908447266" fill="rgb(0, 0, 0)" stroke="rgb(60, 60, 60)" stroke-width="1px" opacity="0.25"></line><line x1="61.86923063718356" y1="0" x2="61.86923063718356" y2="177.95999908447266" fill="rgb(0, 0, 0)" stroke="rgb(60, 60, 60)" stroke-width="1px" opacity="0.25"></line><line x1="82.49230751624475" y1="0" x2="82.49230751624475" y2="177.95999908447266" fill="rgb(0, 0, 0)" stroke="rgb(60, 60, 60)" stroke-width="1px" opacity="0.25"></line><line x1="103.11538439530594" y1="0" x2="103.11538439530594" y2="177.95999908447266" fill="rgb(0, 0, 0)" stroke="rgb(60, 60, 60)" stroke-width="1px" opacity="0.25"></line><line x1="123.73846127436713" y1="0" x2="123.73846127436713" y2="177.95999908447266" fill="rgb(0, 0, 0)" stroke="rgb(60, 60, 60)" stroke-width="1px" opacity="0.25"></line><line x1="144.36153815342828" y1="0" x2="144.36153815342828" y2="177.95999908447266" fill="rgb(0, 0, 0)" stroke="rgb(60, 60, 60)" stroke-width="1px" opacity="0.25"></line><line x1="164.9846150324895" y1="0" x2="164.9846150324895" y2="177.95999908447266" fill="rgb(0, 0, 0)" stroke="rgb(60, 60, 60)" stroke-width="1px" opacity="0.25"></line><line x1="185.60769191155066" y1="0" x2="185.60769191155066" y2="177.95999908447266" fill="rgb(0, 0, 0)" stroke="rgb(60, 60, 60)" stroke-width="1px" opacity="0.25"></line><line x1="206.23076879061188" y1="0" x2="206.23076879061188" y2="177.95999908447266" fill="rgb(0, 0, 0)" stroke="rgb(60, 60, 60)" stroke-width="1px" opacity="0.25"></line><line x1="226.85384566967303" y1="0" x2="226.85384566967303" y2="177.95999908447266" fill="rgb(0, 0, 0)" stroke="rgb(60, 60, 60)" stroke-width="1px" opacity="0.25"></line><line x1="247.47692254873425" y1="0" x2="247.47692254873425" y2="177.95999908447266" fill="rgb(0, 0, 0)" stroke="rgb(60, 60, 60)" stroke-width="1px" opacity="0.25"></line><line x1="268.0999994277954" y1="0" x2="268.0999994277954" y2="177.95999908447266" fill="rgb(0, 0, 0)" stroke="rgb(60, 60, 60)" stroke-width="1px" opacity="0.25"></line></g><g><line x1="0" y1="177.95999908447266" x2="268.0999994277954" y2="177.95999908447266" fill="rgb(0, 0, 0)" stroke="rgb(60, 60, 60)" stroke-width="1px" opacity="0.25"></line><line x1="0" y1="158.1866658528646" x2="268.0999994277954" y2="158.1866658528646" fill="rgb(0, 0, 0)" stroke="rgb(60, 60, 60)" stroke-width="1px" opacity="0.25"></line><line x1="0" y1="138.4133326212565" x2="268.0999994277954" y2="138.4133326212565" fill="rgb(0, 0, 0)" stroke="rgb(60, 60, 60)" stroke-width="1px" opacity="0.25"></line><line x1="0" y1="118.63999938964844" x2="268.0999994277954" y2="118.63999938964844" fill="rgb(0, 0, 0)" stroke="rgb(60, 60, 60)" stroke-width="1px" opacity="0.25"></line><line x1="0" y1="98.86666615804036" x2="268.0999994277954" y2="98.86666615804036" fill="rgb(0, 0, 0)" stroke="rgb(60, 60, 60)" stroke-width="1px" opacity="0.25"></line><line x1="0" y1="79.09333292643228" x2="268.0999994277954" y2="79.09333292643228" fill="rgb(0, 0, 0)" stroke="rgb(60, 60, 60)" stroke-width="1px" opacity="0.25"></line><line x1="0" y1="59.31999969482422" x2="268.0999994277954" y2="59.31999969482422" fill="rgb(0, 0, 0)" stroke="rgb(60, 60, 60)" stroke-width="1px" opacity="0.25"></line><line x1="0" y1="39.546666463216155" x2="268.0999994277954" y2="39.546666463216155" fill="rgb(0, 0, 0)" stroke="rgb(60, 60, 60)" stroke-width="1px" opacity="0.25"></line><line x1="0" y1="19.773333231608092" x2="268.0999994277954" y2="19.773333231608092" fill="rgb(0, 0, 0)" stroke="rgb(60, 60, 60)" stroke-width="1px" opacity="0.25"></line><line x1="0" y1="0" x2="268.0999994277954" y2="0" fill="rgb(0, 0, 0)" stroke="rgb(60, 60, 60)" stroke-width="1px" opacity="0.25"></line></g></g></g><g><g><line x1="0" y1="158.1866658528646" x2="268.0999994277954" y2="158.1866658528646" fill="rgb(0, 0, 0)" stroke="rgb(153, 153, 153)" stroke-width="1.5px"></line></g></g><g><g><line x1="20.623076879061188" y1="0" x2="20.623076879061188" y2="177.95999908447266" fill="rgb(0, 0, 0)" stroke="rgb(153, 153, 153)" stroke-width="1.5px"></line></g></g><g><g><g><g><g><path style="fill: none;" stroke="rgb(0, 119, 187)" stroke-width="2px" d="M24.747692254873424,-35.17874277360556L26.80999994277954,5.678134643243226L28.87230763068566,7.834518417551379L30.93461531859178,31.406213133005053L32.9969230064979,50.86370486837309L35.059230694404015,63.90883636639019L37.121538382310135,71.44551685484885L39.183846070216255,75.37565682688356L41.246153758122375,80.51712304714829L43.30846144602849,86.16334255275929L45.37076913393461,89.46764174311619L47.43307682184073,91.24386948488751L49.49538450974685,92.70756973137058L51.55769219765297,93.71747031458099L53.61999988555908,92.40486898637347L55.6823075734652,93.95134678636913L57.74461526137132,94.98274137155147L59.80692294927744,94.66169006152987L61.86923063718356,90.01206734947067L63.931538325089676,89.70133485319134L65.9938460129958,92.35445329419059L68.0561537009019,94.77543116874162L70.11846138880803,96.53341514686888L72.18076907671414,97.76115725524346L74.24307676462027,97.49094890266859L76.30538445252638,96.3247748739912L78.36769214043251,97.97465850193056L80.42999982833862,99.29773356515766L82.49230751624475,99.10524144537564L84.55461520415086,99.50839324752512L86.61692289205698,98.32860966713216L88.67923057996309,98.32005386048361L90.74153826786922,96.60206518068188L92.80384595577533,98.60591689563297L94.86615364368146,100.18911277848791L96.92846133158757,100.29514401195215L98.9907690194937,100.26211191479815L101.05307670739981,101.22881807076L103.11538439530594,100.51304922922263L105.17769208321205,85.57610709600692L107.23999977111816,85.31570873348137L109.30230745902428,88.8267729627186L111.3646151469304,93.15078719314212L113.42692283483652,96.14497563058134L115.48923052274264,98.2474911397624L117.55153821064876,86.86178717496396L119.61384589855489,88.53907046395427L121.676153586461,92.60751563917054L123.73846127436713,96.12094432088793L125.80076896227322,98.86612437387075L127.86307665017935,100.55776632412491L129.92538433808548,101.9210933389499L131.9876920259916,102.64683718098098L134.0499997138977,103.19797785905287L136.1123074018038,103.56368030923379L138.17461508970993,103.67494797734486L140.23692277761606,103.8212157538838L142.2992304655222,102.51776820425715L144.36153815342828,102.76897945527539L146.4238458413344,103.28964203918571L148.48615352924054,103.61372877079957L150.54846121714667,103.94784047924338L152.61076890505277,104.41515979754084L154.67307659295886,104.49910525687L156.73538428086502,104.74624159572271L158.79769196877112,104.76172072256297L160.85999965667725,104.77105298480228L162.92230734458334,104.74067257548525L164.9846150324895,104.88489542781926L167.0469227203956,104.9915428282209L169.10923040830173,104.95954750939353L171.17153809620783,104.61752242745443L173.23384578411395,104.7019015995057L175.29615347202008,104.86921348489274L177.35846115992618,104.98893879783901L179.4207688478323,105.11281076029229L181.48307653573843,105.22727174349647L183.54538422364456,105.25569031227143L185.60769191155066,105.26509716742002L187.6699995994568,105.29040710815919L189.73230728736291,105.28152406072036L191.794614975269,105.30612551351076L193.85692266317514,105.33983799183801L195.91923035108124,105.32392542495329L197.9815380389874,105.4134259583994L200.0438457268935,105.44990718809393L202.10615341479962,105.43825346786687L204.16846110270572,105.42405773947048L206.23076879061188,105.30825393715767L208.29307647851797,105.29016256724367L210.3553841664241,105.27973674932649L212.4176918543302,105.26288108754153L214.47999954223633,105.26981470779822L216.54230723014246,105.31621291970534L218.60461491804855,105.44301270532132L220.66692260595468,105.46125717608916L222.7292302938608,105.43760539058316L224.79153798176694,105.4208897955575L226.85384566967303,105.40379837218235L228.91615335757916,105.31637229300647L230.9784610454853,105.33430394976276L233.0407687333914,105.34473765504562L235.10307642129752,105.3551370599669L237.16538410920361,105.33469595221007L239.22769179710977,105.31853725096511L241.28999948501587,105.32673998411315L243.352307172922,105.33640188283023L245.4146148608281,105.37061228904993L247.47692254873425,105.39078024370075L249.53923023664035,105.37036392522532L251.60153792454645,105.35609168656441L253.66384561245258,105.33182255292895L255.7261533003587,105.30065955960626L257.78846098826483,105.31085353509842L259.85076867617096,105.31836771924262" fill="none"></path></g><g><path style="fill: none;" stroke="rgb(187, 187, 187)" stroke-width="2px" d="M24.747692254873424,-15.142750500996868L26.80999994277954,4.447236032542946L28.87230763068566,18.163414741176553L30.93461531859178,27.26782839784937L32.9969230064979,35.98527829930484L35.059230694404015,40.351847806583805L37.121538382310135,42.98634038834055L39.183846070216255,46.38517707139917L41.246153758122375,52.52955558319562L43.30846144602849,57.61020273355476L45.37076913393461,63.079256807924494L47.43307682184073,66.87052068194483L49.49538450974685,72.32098558570092L51.55769219765297,74.71356976012589L53.61999988555908,77.57624039979012L55.6823075734652,80.66104879941916L57.74461526137132,81.1427121762485L59.80692294927744,84.29595198119581L61.86923063718356,84.2186079478527L63.931538325089676,86.22092418736993L65.9938460129958,87.52825953921645L68.0561537009019,87.46033459513949L70.11846138880803,88.22695593096665L72.18076907671414,87.63998835683466L74.24307676462027,88.3716646756541L76.30538445252638,88.80647658855085L78.36769214043251,90.4748131664283L80.42999982833862,91.31385859066349L82.49230751624475,92.60056469058293L84.55461520415086,93.03963865762377L86.61692289205698,93.8717373146532L88.67923057996309,93.30504636511466L90.74153826786922,93.5440528994506L92.80384595577533,94.74237538385813L94.86615364368146,92.50434541932911L96.92846133158757,93.38060266672558L98.9907690194937,94.41171197713498L101.05307670739981,94.50861908700406L103.11538439530594,95.14321276999672L105.17769208321205,95.18301213259417L107.23999977111816,95.04717024924766L109.30230745902428,95.44418847300574L111.3646151469304,95.00471211058628L113.42692283483652,94.78727387059602L115.48923052274264,95.5659506123666L117.55153821064876,96.18579252025052L119.61384589855489,96.54696313553181L121.676153586461,96.65483755350728L123.73846127436713,96.77804818243582L125.80076896227322,96.84079924049631L127.86307665017935,96.75977840307543L129.92538433808548,96.90852661229506L131.9876920259916,96.97341895181361L134.0499997138977,96.9203047048523L136.1123074018038,96.80939334250951L138.17461508970993,96.90418268397998L140.23692277761606,97.04925197474884L142.2992304655222,97.08103688712566L144.36153815342828,97.19529722901291L146.4238458413344,97.29295263615164L148.48615352924054,97.26248982932084L150.54846121714667,97.14033895487694L152.61076890505277,97.23082661203352L154.67307659295886,97.21303710042594L156.73538428086502,97.19414867341342L158.79769196877112,97.4159203790377L160.85999965667725,97.29914748336368L162.92230734458334,97.31351503933037L164.9846150324895,97.30711336032337L167.0469227203956,97.09175686538273L169.10923040830173,97.28125760612453L171.17153809620783,97.31182791228217L173.23384578411395,97.32415225371491L175.29615347202008,97.30561332917205L177.35846115992618,97.2894385698372L179.4207688478323,97.29847317603873L181.48307653573843,97.2649818598308L183.54538422364456,97.38455852540659L185.60769191155066,97.40661548641312L187.6699995994568,97.42534657181243L189.73230728736291,97.46550292335286L191.794614975269,97.51127793800775L193.85692266317514,97.54850632425796L195.91923035108124,97.5209468871486L197.9815380389874,97.58057829774093L200.0438457268935,97.55273018907343" fill="none"></path></g></g></g></g><g opacity="0.2"><g><g><g><path style="fill: none;" stroke="rgb(0, 119, 187)" stroke-width="2px" d="M22.685384566967304,-38.276072023888446L24.747692254873424,25.19996550947144L26.80999994277954,53.725822485457385L28.87230763068566,10.649893073288098L30.93461531859178,64.01435273457508L32.9969230064979,78.68822936981708L35.059230694404015,82.92876332376153L37.121538382310135,82.56065665050725L39.183846070216255,81.21145665112226L41.246153758122375,88.1826896573395L43.30846144602849,94.60194533396331L45.37076913393461,94.41330141848584L47.43307682184073,93.90473128248884L49.49538450974685,94.90139957640062L51.55769219765297,95.23160892926141L53.61999988555908,90.43652244295392L55.6823075734652,96.27067083581673L57.74461526137132,96.52967612674092L59.80692294927744,94.18014244185892L61.86923063718356,83.03788827774163L63.931538325089676,89.23524633355753L65.9938460129958,96.33407857449401L68.0561537009019,98.40686930177723L70.11846138880803,99.17037861906208L72.18076907671414,99.60276518204607L74.24307676462027,97.08563706519544L76.30538445252638,94.57551562132691L78.36769214043251,100.44948242406358L80.42999982833862,101.28234542875484L82.49230751624475,98.81650332953511L84.55461520415086,100.11312087053557L86.61692289205698,96.55893443738523L88.67923057996309,98.3072201511236L90.74153826786922,94.02508223481286L92.80384595577533,101.61169441638822L94.86615364368146,102.56390657827569L96.92846133158757,100.45419086116424L98.9907690194937,100.21256376925112L101.05307670739981,102.67887730147217L103.11538439530594,99.43939596835177L105.17769208321205,63.17069391415362L107.23999977111816,84.925111189881L109.30230745902428,94.0933693050538L111.3646151469304,99.63680853765376L113.42692283483652,100.63625828627332L115.48923052274264,101.40126440333734L117.55153821064876,69.7832312284054L119.61384589855489,91.05499539738321L121.676153586461,98.71018340191283L123.73846127436713,101.39108734342139L125.80076896227322,102.98389445332502L127.86307665017935,103.09522924949883L129.92538433808548,103.96608386118382L131.9876920259916,103.73545294402645L134.0499997138977,104.02468887616018L136.1123074018038,104.11223398450497L138.17461508970993,103.84184947951145L140.23692277761606,104.04061741869222L142.2992304655222,100.56259687981735L144.36153815342828,103.14579633180271L146.4238458413344,104.07063591505116L148.48615352924054,104.09985886822037L150.54846121714667,104.44900804190912L152.61076890505277,105.11613877498698L154.67307659295886,104.62502344586377L156.73538428086502,105.11694610400174L158.79769196877112,104.78493941282342L160.85999965667725,104.78505137816123L162.92230734458334,104.69510196150972L164.9846150324895,105.10122970632028L167.0469227203956,105.15151392882339L169.10923040830173,104.91155453115243L171.17153809620783,104.1044848045458L173.23384578411395,104.82847035758263L175.29615347202008,105.12018131297329L177.35846115992618,105.16852676725846L179.4207688478323,105.29861870397221L181.48307653573843,105.39896321830278L183.54538422364456,105.29831816543387L185.60769191155066,105.27920745014293L187.6699995994568,105.3283720192679L189.73230728736291,105.26819948956215L191.794614975269,105.34302769269638L193.85692266317514,105.39040670932886L195.91923035108124,105.30005657462623L197.9815380389874,105.5476767585686L200.0438457268935,105.50462903263573L202.10615341479962,105.42077288752625L204.16846110270572,105.40276414687591L206.23076879061188,105.13454823368845L208.29307647851797,105.26302551237268L210.3553841664241,105.26409802245068L212.4176918543302,105.23759759486408L214.47999954223633,105.28021513818325L216.54230723014246,105.385810237566L218.60461491804855,105.63321238374526L220.66692260595468,105.48862388224099L222.7292302938608,105.40212771232413L224.79153798176694,105.39581640301898L226.85384566967303,105.37816123711961L228.91615335757916,105.18523317424267L230.9784610454853,105.3612014348972L233.0407687333914,105.36038821296992L235.10307642129752,105.37073616734885L237.16538410920361,105.30403429057485L239.22769179710977,105.29429919909764L241.28999948501587,105.33904408383523L243.352307172922,105.35089473090588L245.4146148608281,105.4219278983795L247.47692254873425,105.42103217567698L249.53923023664035,105.33973944751219L251.60153792454645,105.33468332857305L253.66384561245258,105.29541885247576L255.7261533003587,105.25391506962221L257.78846098826483,105.32614449833667L259.85076867617096,105.32963899545894" fill="none"></path></g><g><path style="fill: none;" stroke="rgb(187, 187, 187)" stroke-width="2px" d="M20.623076879061188,-166.36280382400582L22.685384566967304,7.21998227219774L24.747692254873424,25.878829031369605L26.80999994277954,27.485060195985767L28.87230763068566,36.07125766316858L30.93461531859178,39.86251007394429L32.9969230064979,48.451371137584545L35.059230694404015,46.71834806726383L37.121538382310135,46.871705222592624L39.183846070216255,51.4320534317188L41.246153758122375,61.69039429001457L43.30846144602849,65.20352480166261L45.37076913393461,71.2649805090235L47.43307682184073,72.5499890123665L49.49538450974685,80.49027612444328L51.55769219765297,78.30075858603368L53.61999988555908,81.86903497301091L55.6823075734652,85.2874781663442L57.74461526137132,81.86513386492501L59.80692294927744,89.02552347000862L61.86923063718356,84.10259613956866L63.931538325089676,89.22433265957702L65.9938460129958,89.48923675593021L68.0561537009019,87.35844798365983L70.11846138880803,89.37688248589106L72.18076907671414,86.75953949878523L74.24307676462027,89.46917728172411L76.30538445252638,89.45869379035732L78.36769214043251,92.9773164964707L80.42999982833862,92.57242626328859L82.49230751624475,94.5306234137764L84.55461520415086,93.698249520824L86.61692289205698,95.11988520086153L88.67923057996309,92.45500998139778L90.74153826786922,93.90256269068277L92.80384595577533,96.5398590795694L94.86615364368146,89.14730050716162L96.92846133158757,94.69498852968597L98.9907690194937,95.95837593700602L101.05307670739981,94.6539797514838L103.11538439530594,96.09510329321333L105.17769208321205,95.24271117644246L107.23999977111816,94.84340742432597L109.30230745902428,96.03971580847096L111.3646151469304,94.34549756707126L113.42692283483652,94.46111651064454L115.48923052274264,96.73396572494964L117.55153821064876,97.1155553820416L119.61384589855489,97.08871905844157L121.676153586461,96.81664918046833L123.73846127436713,96.96286412582717L125.80076896227322,96.93492582758654L127.86307665017935,96.63824714694451L129.92538433808548,97.1316489261241L131.9876920259916,97.07075746109135L134.0499997138977,96.8406333344104L136.1123074018038,96.64302629899537L138.17461508970993,97.04636669618564L140.23692277761606,97.26685591090215L142.2992304655222,97.1287142556909L144.36153815342828,97.36668774184379L146.4238458413344,97.4394357468597L148.48615352924054,97.21679561907467L150.54846121714667,96.95711264321109L152.61076890505277,97.36655809776843L154.67307659295886,97.18635283301455L156.73538428086502,97.16581603289464L158.79769196877112,97.7485779374741L160.85999965667725,97.12398813985268L162.92230734458334,97.33506637328037L164.9846150324895,97.29751084181287L167.0469227203956,96.76872212297182L169.10923040830173,97.56550871723721L171.17153809620783,97.35768337151862L173.23384578411395,97.34263876586405L175.29615347202008,97.27780494235776L177.35846115992618,97.26517643083496L179.4207688478323,97.31202508534095L181.48307653573843,97.21474488551894L183.54538422364456,97.56392352377028L185.60769191155066,97.43970092792294L187.6699995994568,97.45344319991136L189.73230728736291,97.52573745066351L191.794614975269,97.57994045999007L193.85692266317514,97.60434890363331L195.91923035108124,97.47960773148452L197.9815380389874,97.67002541362946L200.0438457268935,97.51095802607219" fill="none"></path></g></g></g></g></g></g><g transform="translate(61, 177)" clip-path="url(#clip_1)"><clipPath id="clip_1"><rect width="268" height="22"></rect></clipPath><g><g><line x1="0" y1="0" x2="0" y2="5" style="visibility: inherit;" fill="rgb(0, 0, 0)" stroke="rgb(204, 204, 204)" stroke-width="1px"></line><line x1="20.623076879061188" y1="0" x2="20.623076879061188" y2="5" style="visibility: inherit;" fill="rgb(0, 0, 0)" stroke="rgb(204, 204, 204)" stroke-width="1px"></line><line x1="41.246153758122375" y1="0" x2="41.246153758122375" y2="5" style="visibility: inherit;" fill="rgb(0, 0, 0)" stroke="rgb(204, 204, 204)" stroke-width="1px"></line><line x1="61.86923063718356" y1="0" x2="61.86923063718356" y2="5" style="visibility: inherit;" fill="rgb(0, 0, 0)" stroke="rgb(204, 204, 204)" stroke-width="1px"></line><line x1="82.49230751624475" y1="0" x2="82.49230751624475" y2="5" style="visibility: inherit;" fill="rgb(0, 0, 0)" stroke="rgb(204, 204, 204)" stroke-width="1px"></line><line x1="103.11538439530594" y1="0" x2="103.11538439530594" y2="5" style="visibility: inherit;" fill="rgb(0, 0, 0)" stroke="rgb(204, 204, 204)" stroke-width="1px"></line><line x1="123.73846127436713" y1="0" x2="123.73846127436713" y2="5" style="visibility: inherit;" fill="rgb(0, 0, 0)" stroke="rgb(204, 204, 204)" stroke-width="1px"></line><line x1="144.36153815342828" y1="0" x2="144.36153815342828" y2="5" style="visibility: inherit;" fill="rgb(0, 0, 0)" stroke="rgb(204, 204, 204)" stroke-width="1px"></line><line x1="164.9846150324895" y1="0" x2="164.9846150324895" y2="5" style="visibility: inherit;" fill="rgb(0, 0, 0)" stroke="rgb(204, 204, 204)" stroke-width="1px"></line><line x1="185.60769191155066" y1="0" x2="185.60769191155066" y2="5" style="visibility: inherit;" fill="rgb(0, 0, 0)" stroke="rgb(204, 204, 204)" stroke-width="1px"></line><line x1="206.23076879061188" y1="0" x2="206.23076879061188" y2="5" style="visibility: inherit;" fill="rgb(0, 0, 0)" stroke="rgb(204, 204, 204)" stroke-width="1px"></line><line x1="226.85384566967303" y1="0" x2="226.85384566967303" y2="5" style="visibility: inherit;" fill="rgb(0, 0, 0)" stroke="rgb(204, 204, 204)" stroke-width="1px"></line><line x1="247.47692254873425" y1="0" x2="247.47692254873425" y2="5" style="visibility: inherit;" fill="rgb(0, 0, 0)" stroke="rgb(204, 204, 204)" stroke-width="1px"></line><line x1="268.0999994277954" y1="0" x2="268.0999994277954" y2="5" style="visibility: inherit;" fill="rgb(0, 0, 0)" stroke="rgb(204, 204, 204)" stroke-width="1px"></line></g><g transform="translate(0, 8)"><text style="text-anchor: middle; visibility: hidden; font-family: &quot;Helvetica Neue&quot;, sans-serif; font-size: 12px; font-weight: 200;" x="0" y="0" dx="0em" dy="0.95em" fill="rgb(50, 49, 63)" stroke="none" stroke-width="1px">-10</text><text style="text-anchor: middle; visibility: inherit; font-family: &quot;Helvetica Neue&quot;, sans-serif; font-size: 12px; font-weight: 200;" x="20.623076879061188" y="0" dx="0em" dy="0.95em" fill="rgb(50, 49, 63)" stroke="none" stroke-width="1px">0</text><text style="text-anchor: middle; visibility: hidden; font-family: &quot;Helvetica Neue&quot;, sans-serif; font-size: 12px; font-weight: 200;" x="41.246153758122375" y="0" dx="0em" dy="0.95em" fill="rgb(50, 49, 63)" stroke="none" stroke-width="1px">10</text><text style="text-anchor: middle; visibility: inherit; font-family: &quot;Helvetica Neue&quot;, sans-serif; font-size: 12px; font-weight: 200;" x="61.86923063718356" y="0" dx="0em" dy="0.95em" fill="rgb(50, 49, 63)" stroke="none" stroke-width="1px">20</text><text style="text-anchor: middle; visibility: hidden; font-family: &quot;Helvetica Neue&quot;, sans-serif; font-size: 12px; font-weight: 200;" x="82.49230751624475" y="0" dx="0em" dy="0.95em" fill="rgb(50, 49, 63)" stroke="none" stroke-width="1px">30</text><text style="text-anchor: middle; visibility: inherit; font-family: &quot;Helvetica Neue&quot;, sans-serif; font-size: 12px; font-weight: 200;" x="103.11538439530594" y="0" dx="0em" dy="0.95em" fill="rgb(50, 49, 63)" stroke="none" stroke-width="1px">40</text><text style="text-anchor: middle; visibility: hidden; font-family: &quot;Helvetica Neue&quot;, sans-serif; font-size: 12px; font-weight: 200;" x="123.73846127436713" y="0" dx="0em" dy="0.95em" fill="rgb(50, 49, 63)" stroke="none" stroke-width="1px">50</text><text style="text-anchor: middle; visibility: inherit; font-family: &quot;Helvetica Neue&quot;, sans-serif; font-size: 12px; font-weight: 200;" x="144.36153815342828" y="0" dx="0em" dy="0.95em" fill="rgb(50, 49, 63)" stroke="none" stroke-width="1px">60</text><text style="text-anchor: middle; visibility: hidden; font-family: &quot;Helvetica Neue&quot;, sans-serif; font-size: 12px; font-weight: 200;" x="164.9846150324895" y="0" dx="0em" dy="0.95em" fill="rgb(50, 49, 63)" stroke="none" stroke-width="1px">70</text><text style="text-anchor: middle; visibility: inherit; font-family: &quot;Helvetica Neue&quot;, sans-serif; font-size: 12px; font-weight: 200;" x="185.60769191155066" y="0" dx="0em" dy="0.95em" fill="rgb(50, 49, 63)" stroke="none" stroke-width="1px">80</text><text style="text-anchor: middle; visibility: hidden; font-family: &quot;Helvetica Neue&quot;, sans-serif; font-size: 12px; font-weight: 200;" x="206.23076879061188" y="0" dx="0em" dy="0.95em" fill="rgb(50, 49, 63)" stroke="none" stroke-width="1px">90</text><text style="text-anchor: middle; visibility: inherit; font-family: &quot;Helvetica Neue&quot;, sans-serif; font-size: 12px; font-weight: 200;" x="226.85384566967303" y="0" dx="0em" dy="0.95em" fill="rgb(50, 49, 63)" stroke="none" stroke-width="1px">100</text><text style="text-anchor: middle; visibility: hidden; font-family: &quot;Helvetica Neue&quot;, sans-serif; font-size: 12px; font-weight: 200;" x="247.47692254873425" y="0" dx="0em" dy="0.95em" fill="rgb(50, 49, 63)" stroke="none" stroke-width="1px">110</text><text style="text-anchor: middle; visibility: hidden; font-family: &quot;Helvetica Neue&quot;, sans-serif; font-size: 12px; font-weight: 200;" x="268.0999994277954" y="0" dx="0em" dy="0.95em" fill="rgb(50, 49, 63)" stroke="none" stroke-width="1px">120</text></g><line x1="0" y1="0" x2="268.0999994277954" y2="0" fill="rgb(0, 0, 0)" stroke="rgb(204, 204, 204)" stroke-width="1px"></line></g></g></g></g></svg>